<?xml version="1.0" encoding="utf-8"?>
<!-- Generator: Adobe Illustrator 28.1.0, SVG Export Plug-In . SVG Version: 6.00 Build 0)  -->
<svg version="1.1" id="Layer_1" xmlns="http://www.w3.org/2000/svg" xmlns:xlink="http://www.w3.org/1999/xlink" x="0px" y="0px"
	 viewBox="0 0 1061 49" style="enable-background:new 0 0 1061 49;" xml:space="preserve">
<style type="text/css">
	.st0{fill:#9CB18C;stroke:#000000;stroke-width:2;stroke-linecap:round;stroke-linejoin:round;}
</style>
<g>
	<path class="st0" d="M33.6,8.8c3.3,2.6,5.9,6.7,6.5,10.9c0.5,6.6-2.8,13-7.9,17.1c-3.3,2.6-6.9,4.9-11.1,6.1
		c-4.7,1.3-12.9,2.9-12.2-4.3C9.2,32.4,9.6,26.4,9.8,20c0.1-3.7,0.2-6.7,0.2-9.2c-0.2-2.5,1-5.4,3.3-6.5c6.8-2.5,14.6,0.3,20.1,4.4
		L33.6,8.8z M24.5,9.7c-2.1-0.7-8-2.8-9.4-0.4c-0.3,0.9,0,1.9,0.1,2.7c0.2,2.1,0.1,3.1,0.1,6.1C15.1,24,15.1,31,14.6,36.5
		c-0.3,1.9,0.6,2.3,2.5,1.8c3.8-0.9,7.6-2.3,10.7-4.8c4.9-3.8,9.1-10.9,5.5-16.8c-2-3-5.3-5.7-8.6-6.9L24.5,9.7z"/>
	<path class="st0" d="M55,13.8c1.8-0.1,4.6,0.3,5.1,2.3c0.2,0.9-0.3,1.9-1.1,2.5c-1.5,1-3.7,0.2-5.5,1.2c-1.4,0.8-3.1,2-3.2,3.7
		c0,0.7,1.5,0.8,2,0.7c3-0.3,6-2.7,9-2.4c4.2,0.3,5.7,4.6,5.9,8.4c1.5,8.3-10,16.8-17.5,13.3C47,42,43.4,36.7,45.9,34
		c2.1-1.5,3.5,0.7,4.3,2.4c3.5,5.8,12.9-0.9,11.5-6.4c-0.2-2.1-1-3.3-3.3-2.3c-3.3,1.5-7.6,2.6-11.1,1.2c-2.1-0.9-3.1-3.4-2.9-5.6
		c0.3-4.9,5.5-8.8,10.3-9.5L55,13.8z"/>
	<path class="st0" d="M96,8.8c3.3,2.6,5.9,6.7,6.5,10.9c0.5,6.6-2.8,13-7.9,17.1c-3.3,2.6-6.9,4.9-11.1,6.1
		c-4.7,1.3-12.9,2.9-12.2-4.3c0.3-6.2,0.6-12.2,0.9-18.6c0.1-3.7,0.2-6.7,0.2-9.2c-0.2-2.5,1-5.4,3.3-6.5c6.8-2.5,14.6,0.3,20.1,4.4
		L96,8.8z M86.9,9.7c-2.1-0.7-8-2.8-9.4-0.4c-0.3,0.9,0,1.9,0.1,2.7c0.2,2.1,0.1,3.1,0.1,6.1C77.5,24,77.5,31,77,36.5
		c-0.3,1.9,0.6,2.3,2.5,1.8c3.8-0.9,7.6-2.3,10.7-4.8c4.9-3.8,9.1-10.9,5.5-16.8c-2-3-5.3-5.7-8.6-6.9L86.9,9.7z"/>
	<path class="st0" d="M116.6,13.6c2.9-0.3,5.5,2.3,6.6,4.9c0.5,0.8,0.6,2.3,1.4,2.7c0.5,0.2,1.2-0.8,2.2-1.9c5.3-6.4,14.2-7.5,16,2
		c1.3,6.7,0.3,13.5-0.4,20.1c-0.1,2.3-1.4,5.2-4,3.7c-2.2-1.6-1.1-4.3-0.9-7c0.4-4.2,1-8.3,0.5-12.5c-0.4-3.2-0.8-7.8-4.7-4.8
		c-4,3.1-6,6.9-7.5,12c-0.6,2.4-1.4,6.5-4.7,5.1c-1.9-0.9-1.5-4.4-1.6-6.4c-0.2-3.6,0.3-7.9-1.2-10.9c-1.9-2.6-3.6,2-4.2,3.7
		c-2.3,6.2-0.6,13.5-1.1,19.7c-0.4,1.3-2.1,2-3.3,1.6c-2.8-1.1-2.4-5.8-2.7-8.3c-0.2-4,0.4-7.6,1-11.5c0.2-1.7,0-3.8,0.8-5.1
		c0.7-1.4,1.9-2.3,2.8-3.5c1.3-1.7,3.2-3.4,5-3.6L116.6,13.6z"/>
	<path class="st0" d="M150.4,11.2c0.7-0.3,1.9-0.1,2.8,0c3.2,0.6,2.8,5.1,0.7,6.9c-0.8,0.7-1.5,0.9-2.4,1.2
		c-1.1,0.5-3.1-0.8-3.8-1.8c-0.3-0.7,0.2-1.6,0.4-2.4c0.4-1.2,1.4-3.3,2.3-3.9L150.4,11.2z M149.5,35c1-1.1,2.8-1.1,4-0.4
		c2.6,0.9,2.2,4.6,0.2,5.9c-0.7,0.5-1.1,1.2-1.8,1.4c-0.8,0.2-1.5-0.1-2.4-0.5c-2.7-1.1-2.1-4.8-0.1-6.2L149.5,35z"/>
	<path class="st0" d="M202.5,8.8c3.3,2.6,5.9,6.7,6.5,10.9c0.5,6.6-2.8,13-7.9,17.1c-3.3,2.6-6.9,4.9-11.1,6.1
		c-4.7,1.3-12.9,2.9-12.2-4.3c0.3-6.2,0.6-12.2,0.9-18.6c0.1-3.7,0.2-6.7,0.2-9.2c-0.2-2.5,1-5.4,3.3-6.5c6.8-2.5,14.6,0.3,20.1,4.4
		L202.5,8.8z M193.4,9.7c-2.1-0.7-8-2.8-9.4-0.4c-0.3,0.9,0,1.9,0.1,2.7c0.2,2.1,0.1,3.1,0.1,6.1C184,24,184,31,183.5,36.5
		c-0.3,1.9,0.6,2.3,2.5,1.8c3.8-0.9,7.6-2.3,10.7-4.8c4.9-3.8,9.1-10.9,5.5-16.8c-2-3-5.3-5.7-8.6-6.9L193.4,9.7z"/>
	<path class="st0" d="M223.4,17.2c3.8-1.6,6.8,0.2,8.3,3.9c0.7,1.7,2.5,1,3.9,1.8c3,2.4-0.1,7.7,0.1,10.9c0,2.1,0.4,4.2,1.4,5.7
		c0.6,0.9,1.5,1.8,1.5,2.9c0.1,1.8-1.8,3.4-3.5,2.4c-0.9-0.5-1.5-1-2.2-1.8c-0.8-1-1.3-2-2-1.9c-0.8-0.1-2.2,1.3-3.1,1.9
		c-2.4,1.7-5.6,2.5-8.4,1.7c-11.9-4.6-5-23,3.9-27.4L223.4,17.2z M227.8,23.1c-0.9-1.7-2-1.4-3.2-0.4c-2.3,1.7-3.9,4.3-5,7
		c-1.1,3-2.1,9.8,2.5,10.1c3.8-0.6,6.8-4,8-7.7c0.4-1.4,0.4-2.7,0.6-4.2c0.1-0.6,0.1-0.9,0-1.2c-0.3-1.1-2.2-2.2-2.8-3.5L227.8,23.1
		z"/>
	<path class="st0" d="M252,3.8c0.6-0.9,2-1.1,2.9-0.8c1.9,0.7,1.1,2.7,1,4.5c-0.1,1-0.3,2.1-0.5,3.2c-0.2,1.5-0.8,3.1-0.4,3.9
		c0.6,1.2,2.2,0.9,3.4,1c2.5,0,6.1,0,5.4,3.4c-0.8,3-6.2,1.6-8.6,2c-2.1,0-1.8,1.2-2.1,3.5c-0.2,1.7-0.4,3.1-0.4,5
		c-0.1,6.3,1.3,13.6,8.9,9.9c2.6-1,4.7,1.1,3,3.6c-0.6,1-1.9,1.7-2.9,2c-13.4,4.3-15.5-10.9-14-20.7c0.6-3.8-3.9-2.1-4.5-5
		c-0.2-0.8,0.1-1.6,0.8-2.1c1.2-0.9,3.3-0.6,4.4-1.6c0.3-0.3,0.5-0.7,0.7-1.2c0.9-3.3,1.4-7.6,2.9-10.5L252,3.8z"/>
	<path class="st0" d="M279.5,17.2c3.8-1.6,6.8,0.2,8.3,3.9c0.7,1.7,2.5,1,3.9,1.8c3,2.4-0.1,7.7,0.1,10.9c0,2.1,0.4,4.2,1.4,5.7
		c0.6,0.9,1.5,1.8,1.5,2.9c0.1,1.8-1.8,3.4-3.5,2.4c-0.9-0.5-1.5-1-2.2-1.8c-0.8-1-1.3-2-2-1.9c-0.8-0.1-2.2,1.3-3.1,1.9
		c-2.4,1.7-5.6,2.5-8.4,1.7c-11.9-4.6-5-23,3.9-27.4L279.5,17.2z M283.8,23.1c-0.9-1.7-2-1.4-3.2-0.4c-2.3,1.7-3.9,4.3-5,7
		c-1.1,3-2.1,9.8,2.5,10.1c3.8-0.6,6.8-4,8-7.7c0.4-1.4,0.4-2.7,0.6-4.2c0.1-0.6,0.1-0.9,0-1.2c-0.3-1.1-2.2-2.2-2.8-3.5L283.8,23.1
		z"/>
	<path class="st0" d="M309.8,13.8c1.8-0.1,4.6,0.3,5.1,2.3c0.2,0.9-0.3,1.9-1.1,2.5c-1.5,1-3.7,0.2-5.5,1.2c-1.4,0.8-3.1,2-3.2,3.7
		c0,0.7,1.5,0.8,2,0.7c3-0.3,6-2.7,9-2.4c4.2,0.3,5.7,4.6,5.9,8.4c1.5,8.3-10,16.8-17.5,13.3c-2.7-1.4-6.2-6.7-3.7-9.4
		c2.1-1.5,3.5,0.7,4.3,2.4c3.5,5.8,12.9-0.9,11.5-6.4c-0.2-2.1-1-3.3-3.3-2.3c-3.3,1.5-7.6,2.6-11.1,1.2c-2.1-0.9-3.1-3.4-2.9-5.6
		c0.3-4.9,5.5-8.8,10.3-9.5L309.8,13.8z"/>
	<path class="st0" d="M332.5,31.5c-1.6,0-1.5,2.2-1.2,3.5c0.6,2.2,2.4,4.2,4.7,4.6c2.8,0.6,6.6-0.7,9.5-0.4c1.4,0.3,2.2,1.7,1.5,3
		c-1,1.5-2.8,1.9-4.9,2.3c-12.8,2.5-19.2-6.9-14.5-18.6c3.1-9,14.9-16.4,22.8-8.1c3,3.1,2.6,8.9-0.6,11.8c-2.3,2-4.8,1.7-8.2,2.2
		c-3,0.3-6.4,0.5-9.1-0.3L332.5,31.5z M344.4,19.4c-4.5-1.3-8.9,2.5-11.1,6.1c-0.1,0.2-0.9,1.3-0.3,1.5c2.4,0.1,4.8-0.4,7.2-0.6
		c2-0.2,3.3-0.2,5.1-0.5c1.6-0.3,2.1-2.2,1.9-3.7c-0.2-1.4-1.6-2.3-2.7-2.9L344.4,19.4z"/>
	<path class="st0" d="M365.7,3.8c0.6-0.9,2-1.1,2.9-0.8c1.9,0.7,1.1,2.7,1,4.5c-0.1,1-0.3,2.1-0.5,3.2c-0.2,1.5-0.8,3.1-0.4,3.9
		c0.6,1.2,2.2,0.9,3.4,1c2.5,0,6.1,0,5.4,3.4c-0.8,3-6.2,1.6-8.6,2c-2.1,0-1.8,1.2-2.1,3.5c-0.2,1.7-0.4,3.1-0.4,5
		c-0.1,6.3,1.3,13.6,8.9,9.9c2.6-1,4.7,1.1,3,3.6c-0.6,1-1.9,1.7-2.9,2c-13.4,4.3-15.5-10.9-14-20.7c0.6-3.8-3.9-2.1-4.5-5
		c-0.2-0.8,0.1-1.6,0.8-2.1c1.2-0.9,3.3-0.6,4.4-1.6c0.3-0.3,0.5-0.7,0.7-1.2c0.9-3.3,1.4-7.6,2.9-10.5L365.7,3.8z"/>
	<path class="st0" d="M402.8,36.6c-1-1.4-1.4-4.2,0.7-4.7c1.5-0.3,2.9,1.6,4.5,3.3c1.5,1.6,2.7,3,4.4,4.2c4.9,3.2,9.5-0.7,11.4-5.3
		c1-3.1,1.2-8-1.8-10.2c-3.4-2.1-7.7,0-11.5,0.8c-1.7,0.4-3.6,1-5.2,0.5c-3.8-1.3-4.7-6-3.7-9.4c2.3-8.3,12.7-14.6,20.8-10.1
		c1.6,0.8,3.5,2.3,3.4,4c0,0.8-0.6,1.4-1.2,1.6c-1.8,0.6-3.7-0.7-5.5-1.1c-5-1.7-11.1,2.3-12,7.4c-0.2,1.4,0.4,2.4,1.9,2.1
		c4.5-1,9.8-3.1,14.3-1.3c6.9,2.7,8,11.4,5.9,17.7c-5.8,14-19,13.3-26.3,1L402.8,36.6z"/>
	<path class="st0" d="M440.6,31.5c-1.6,0-1.5,2.2-1.2,3.5c0.6,2.2,2.4,4.2,4.7,4.6c2.8,0.6,6.6-0.7,9.5-0.4c1.4,0.3,2.2,1.7,1.5,3
		c-1,1.5-2.8,1.9-4.9,2.3c-12.8,2.5-19.2-6.9-14.5-18.6c3.1-9,14.9-16.4,22.8-8.1c3,3.1,2.6,8.9-0.6,11.8c-2.3,2-4.8,1.7-8.2,2.2
		c-3,0.3-6.4,0.5-9.1-0.3L440.6,31.5z M452.4,19.4c-4.5-1.3-8.9,2.5-11.1,6.1c-0.1,0.2-0.9,1.3-0.3,1.5c2.4,0.1,4.8-0.4,7.2-0.6
		c2-0.2,3.3-0.2,5.1-0.5c1.6-0.3,2.1-2.2,1.9-3.7c-0.2-1.4-1.6-2.3-2.7-2.9L452.4,19.4z"/>
	<path class="st0" d="M467.8,2.1c0.8-0.5,1.8-0.5,2.5-0.1c1.4,0.6,1.3,2.3,1.3,3.7c-0.2,4.6-0.5,9.6-0.9,14.1
		c-0.6,6.6-0.3,12.8,0.4,19.2c0.1,1.9,1.4,3.5,1.5,5.4c-0.1,2.8-3.8,2.9-5.1,1c-1.6-2.2-1.6-5.4-2.1-8.1c-0.3-3.7-0.7-7.1-0.6-10.8
		c0.5-6.5,1.2-13.2,1.3-19.6c0.2-1.6,0.2-3.6,1.6-4.7L467.8,2.1z"/>
	<path class="st0" d="M483.3,31.5c-1.6,0-1.5,2.2-1.2,3.5c0.6,2.2,2.4,4.2,4.7,4.6c2.8,0.6,6.6-0.7,9.5-0.4c1.4,0.3,2.2,1.7,1.5,3
		c-1,1.5-2.8,1.9-4.9,2.3c-12.8,2.5-19.2-6.9-14.5-18.6c3.1-9,14.9-16.4,22.8-8.1c3,3.1,2.6,8.9-0.6,11.8c-2.3,2-4.8,1.7-8.2,2.2
		c-3,0.3-6.4,0.5-9.1-0.3L483.3,31.5z M495.1,19.4c-3.8-1.1-7.8,1.7-10,4.5c-0.6,0.8-1,1.3-1.4,2.3c-0.5,1,0.3,0.9,1.1,0.9
		c2.7-0.2,5.9-0.6,8.6-0.8c1.3-0.2,2.7,0.1,3.7-0.9c0.9-1,1.2-3.1,0.3-4.3c-0.5-0.7-1.5-1.3-2.2-1.6L495.1,19.4z"/>
	<path class="st0" d="M520,12.4c3.9-0.9,6.4,1.1,8.2,4.2c0.3,0.5,0.6,1,0.8,1.6c0.8,1.9-0.7,4.5-2.7,3.1c-2-1.3-3.7-5.2-6.3-2.7
		c-4.5,3.6-10.4,15.5-4.8,19.9c2.1,1.1,5,0.2,7.2-0.2c2.1-0.4,3.4-0.8,5.3-1c1.7-0.3,3.1,1.4,2.7,3.1c-0.7,1.8-2.7,2.1-4.5,2.7
		c-4.8,1.1-11,2.6-15-0.9c-4.9-4.3-3.9-12.4-1.4-17.5c2.2-4.8,5.3-10.2,10.4-12.1L520,12.4z"/>
	<path class="st0" d="M543.7,3.8c0.6-0.9,2-1.1,2.9-0.8c1.9,0.7,1.1,2.7,1,4.5c-0.1,1-0.3,2.1-0.5,3.2c-0.2,1.5-0.8,3.1-0.4,3.9
		c0.6,1.2,2.2,0.9,3.4,1c2.5,0,6.1,0,5.4,3.4c-0.8,3-6.2,1.6-8.6,2c-2.1,0-1.8,1.2-2.1,3.5c-0.2,1.7-0.4,3.1-0.4,5
		c-0.1,6.3,1.3,13.6,8.9,9.9c2.6-1,4.7,1.1,3,3.6c-0.6,1-1.9,1.7-2.9,2c-13.4,4.3-15.5-10.9-14-20.7c0.6-3.8-3.9-2.1-4.5-5
		c-0.2-0.8,0.1-1.6,0.8-2.1c1.2-0.9,3.3-0.6,4.4-1.6c0.3-0.3,0.5-0.7,0.7-1.2c0.9-3.3,1.4-7.6,2.9-10.5L543.7,3.8z"/>
	<path class="st0" d="M566.9,11c2-0.5,6.3,0.7,5.9,3.2c-0.9,3.6-2.2,2.6-5,2.3c-1.8,0-3.5,1.3-5.3,0.9c-1-0.5-1.6-2.3-1.2-3.2
		c1.1-1.7,3.5-2.5,5.5-3.1L566.9,11z M564.5,23.3c5.4-2.3,4.5,4.7,4.3,8.2c-0.1,2.5,0.2,5.5,0.8,8.1c0.8,2.2-1.5,3.7-3.5,3.2
		c-1.9-0.5-2.3-3.2-2.5-5.2c-0.4-3.2-0.5-6.5-0.2-9.8C563.6,25.6,563.6,24.3,564.5,23.3L564.5,23.3z"/>
	<path class="st0" d="M588.4,16.5c10.1-2.6,15.4,10.4,12.1,18.5c-6.8,14.9-26.7,15.8-23-4.4c1.2-5.7,4.4-12.8,10.8-14L588.4,16.5z
		 M594.1,23.9c-0.5,0-0.5,0-1,0.1c-0.9,0.2-1.6-0.2-2.3-0.8c-3.6-3.3-6.2,2-7.3,5c-2.8,7.1-1.6,17.1,7.9,10.3
		c3.4-2.6,5.6-7.1,4.6-11.3c-0.3-1.1-0.5-2.9-1.7-3.3L594.1,23.9z"/>
	<path class="st0" d="M616.9,15.2c8.5-0.8,10.1,14.4,10.6,20.5c0.1,3,1.1,13.1-3.6,11.3c-0.6-0.3-0.8-0.5-1.2-1
		c-0.9-1.4-0.6-3-0.5-4.6c0.2-3.9,0.1-7.6-0.7-11.3c-0.7-2.3-1.5-8.7-4-9.2c-0.6,0-1,0.2-1.4,0.5c-3.6,2.5-5.4,6.5-5.1,10.9
		c-0.1,3.9,1.4,7.7,0.5,11.5c-0.7,2.4-4,2.7-5,0.2c-0.3-0.7-0.5-1.6-0.7-2.4c-0.4-3.5-0.2-7.4-0.3-11.3c0-2.6,0-4.3,0.1-6.8
		c0.1-1.1,0-2.2,0.4-3.2c0.6-1.2,2.5-0.5,3.9-1.3c2.3-1.3,4-3.5,6.7-4L616.9,15.2z"/>
	<path class="st0" d="M674.2,13.3c2.2-2.1,4.5,1,4.5,3.4c0.1,5,0,9.8-0.7,14.9c-1.1,5-2.6,10.5-6.9,13.5c-1.9,1.1-4.2,0.8-5.7-0.9
		c-0.7-0.7-1.3-1.5-1.8-2.4c-0.7-1.1-0.9-3.6-2.3-2.2c-0.5,0.6-1,1.4-1.5,2c-2.2,3-5.9,2.2-7.6-0.7c-2.4-4.9-2.1-10.7-2.2-16
		c0.1-2.4-0.7-8.5,3.3-6.9c1.4,0.8,1.2,2.9,1.4,4.7c0.3,3.7,0.4,7.4,0.8,11c0.3,3,0.8,4.9,2.5,0.7c0.7-1.8,1.2-3.6,2.4-5.1
		c1.7-2.1,4.5-1.1,5.1,1.5c0.6,2.5,1.2,5.3,2.3,7.7c0.2,0.4,0.3,0.6,0.7,0.9c2.6,1.4,4.6-7.9,4.6-9.6c0.2-3.9,0.6-7.6,0.5-11.5
		c-0.1-1.7-0.5-3.5,0.6-4.9L674.2,13.3z"/>
	<path class="st0" d="M688.8,11c2-0.5,6.3,0.7,5.9,3.2c-0.9,3.6-2.2,2.6-5,2.3c-1.8,0-3.5,1.3-5.3,0.9c-1-0.5-1.6-2.3-1.2-3.2
		c1.1-1.7,3.5-2.5,5.5-3.1L688.8,11z M686.4,23.3c5.4-2.3,4.5,4.7,4.3,8.2c-0.1,2.5,0.2,5.5,0.8,8.1c0.8,2.2-1.5,3.7-3.5,3.2
		c-1.9-0.5-2.3-3.2-2.5-5.2c-0.4-3.2-0.5-6.5-0.2-9.8C685.5,25.6,685.5,24.3,686.4,23.3L686.4,23.3z"/>
	<path class="st0" d="M708,3.8c0.6-0.9,2-1.1,2.9-0.8c1.9,0.7,1.1,2.7,1,4.5c-0.1,1-0.3,2.1-0.5,3.2c-0.2,1.5-0.8,3.1-0.4,3.9
		c0.6,1.2,2.2,0.9,3.4,1c2.5,0,6.1,0,5.4,3.4c-0.8,3-6.2,1.6-8.6,2c-2.1,0-1.8,1.2-2.1,3.5c-0.2,1.7-0.4,3.1-0.4,5
		c-0.1,6.3,1.3,13.6,8.9,9.9c2.6-1,4.7,1.1,3,3.6c-0.6,1-1.9,1.7-2.9,2c-13.4,4.3-15.5-10.9-14-20.7c0.6-3.8-3.9-2.1-4.5-5
		c-0.2-0.8,0.1-1.6,0.8-2.1c1.2-0.9,3.3-0.6,4.4-1.6c0.3-0.3,0.5-0.7,0.7-1.2c0.9-3.3,1.4-7.6,2.9-10.5L708,3.8z"/>
	<path class="st0" d="M727.3,4.1c2.7-0.6,3,2.6,3,4.7c0.2,3.2,0.5,6.8,0.6,9.9c0.1,0.6,0,1.4,0.4,1.8c0.3,0.3,0.9-0.3,1.7-1
		c3.1-2.8,8-4.1,11-0.9c2.7,3.1,2.5,7.8,2.4,11.8c-0.1,3.5,0,7.4-0.1,10.9c0.2,2.4-2.9,3.4-4.3,1.5c-1.2-2.3-0.4-4.7-0.6-7.6
		c0-2.9,0.1-5.4,0-8.1c0.3-7.4-5.4-5.1-7.2-0.3c-1.4,3.2-2.6,8-3,11.5c-0.2,1-0.2,1.3-0.6,2.1c-0.7,1.8-2.7,2-4,0.6
		c-0.7-0.8-1.1-1.9-1.1-2.9c-0.2-2.4,0-5.6,0.1-8.3c0.3-5.3,0.2-11.5,0.3-16.9c0-1.3,0-2.7,0-4.2c0.2-2,0-3.9,1.3-4.5L727.3,4.1z"/>
	<path class="st0" d="M793.4,8.8c3.3,2.6,5.9,6.7,6.5,10.9c0.5,6.6-2.8,13-7.9,17.1c-3.3,2.6-6.9,4.9-11.1,6.1
		c-4.7,1.3-12.9,2.9-12.2-4.3c0.3-6.2,0.6-12.2,0.9-18.6c0.1-3.7,0.2-6.7,0.2-9.2c-0.2-2.5,1-5.4,3.3-6.5c6.8-2.5,14.6,0.3,20.1,4.4
		L793.4,8.8z M784.3,9.7c-2.1-0.7-8-2.8-9.4-0.4c-0.3,0.9,0,1.9,0.1,2.7c0.2,2.1,0.1,3.1,0.1,6.1c-0.2,5.8-0.2,12.7-0.7,18.2
		c-0.3,1.9,0.6,2.3,2.5,1.8c3.8-0.9,7.6-2.3,10.7-4.8c4.9-3.8,9.1-10.9,5.5-16.8c-2-3-5.3-5.7-8.6-6.9L784.3,9.7z"/>
	<path class="st0" d="M814.3,17.2c3.8-1.6,6.8,0.2,8.3,3.9c0.7,1.7,2.5,1,3.9,1.8c3,2.4-0.1,7.7,0.1,10.9c0,2.1,0.4,4.2,1.4,5.7
		c0.6,0.9,1.5,1.8,1.5,2.9c0.1,1.8-1.8,3.4-3.5,2.4c-0.9-0.5-1.5-1-2.2-1.8c-0.8-1-1.3-2-2-1.9c-0.8-0.1-2.2,1.3-3.1,1.9
		c-2.4,1.7-5.6,2.5-8.4,1.7c-11.9-4.6-5-23,3.9-27.4L814.3,17.2z M818.6,23.1c-0.9-1.7-2-1.4-3.2-0.4c-2.3,1.7-3.9,4.3-5,7
		c-1.1,3-2.1,9.8,2.5,10.1c3.8-0.6,6.8-4,8-7.7c0.4-1.4,0.4-2.7,0.6-4.2c0.1-0.6,0.1-0.9,0-1.2c-0.3-1.1-2.2-2.2-2.8-3.5L818.6,23.1
		z"/>
	<path class="st0" d="M842.9,3.8c0.6-0.9,2-1.1,2.9-0.8c1.9,0.7,1.1,2.7,1,4.5c-0.1,1-0.3,2.1-0.5,3.2c-0.2,1.5-0.8,3.1-0.4,3.9
		c0.6,1.2,2.2,0.9,3.4,1c2.5,0,6.1,0,5.4,3.4c-0.8,3-6.2,1.6-8.6,2c-2.1,0-1.8,1.2-2.1,3.5c-0.2,1.7-0.4,3.1-0.4,5
		c-0.1,6.3,1.3,13.6,8.9,9.9c2.6-1,4.7,1.1,3,3.6c-0.6,1-1.9,1.7-2.9,2c-13.4,4.3-15.5-10.9-14-20.7c0.6-3.8-3.9-2.1-4.5-5
		c-0.2-0.8,0.1-1.6,0.8-2.1c1.2-0.9,3.3-0.6,4.4-1.6c0.3-0.3,0.5-0.7,0.7-1.2c0.9-3.3,1.4-7.6,2.9-10.5L842.9,3.8z"/>
	<path class="st0" d="M870.4,17.2c3.8-1.6,6.8,0.2,8.3,3.9c0.7,1.7,2.5,1,3.9,1.8c3,2.4-0.1,7.7,0.1,10.9c0,2.1,0.4,4.2,1.4,5.7
		c0.6,0.9,1.5,1.8,1.5,2.9c0.1,1.8-1.8,3.4-3.5,2.4c-0.9-0.5-1.5-1-2.2-1.8c-0.8-1-1.3-2-2-1.9c-0.8-0.1-2.2,1.3-3.1,1.9
		c-2.4,1.7-5.6,2.5-8.4,1.7c-11.9-4.6-5-23,3.9-27.4L870.4,17.2z M874.7,23.1c-0.9-1.7-2-1.4-3.2-0.4c-2.3,1.7-3.9,4.3-5,7
		c-1.1,3-2.1,9.8,2.5,10.1c3.8-0.6,6.8-4,8-7.7c0.4-1.4,0.4-2.7,0.6-4.2c0.1-0.6,0.1-0.9,0-1.2c-0.3-1.1-2.2-2.2-2.8-3.5L874.7,23.1
		z"/>
	<path class="st0" d="M899.9,13.6c2.7-0.4,5.7,2.4,6.6,5.1c0.4,0.8,0.5,2.1,1.3,2.5c0.5,0.2,1.2-0.8,2.2-1.9
		c3.2-3.9,9.8-7.4,13.7-2.9c3.8,5.3,2.8,11.9,2.6,17.9c-0.2,2.8-0.4,4.6-0.7,7.1c-0.1,2.3-1.4,5.2-4,3.7c-2.2-1.6-1.1-4.3-0.9-7
		c0.4-4.2,1-8.3,0.5-12.5c-0.4-3.2-0.7-7.8-4.7-4.8c-4,3.1-6,6.9-7.5,12c-0.6,2.4-1.4,6.5-4.7,5.1c-1.9-0.9-1.5-4.4-1.6-6.4
		c-0.2-3.6,0.3-7.9-1.2-10.9c-1.6-2.4-3.3,1.1-3.8,2.8c-2.7,6.4-0.9,14.1-1.5,20.7c-0.4,1.3-2.1,2-3.3,1.6c-2.8-1.1-2.3-5.8-2.7-8.3
		c-0.2-4,0.4-7.6,1-11.5c0.2-1.7,0-3.8,0.8-5.1c0.7-1.4,1.9-2.3,2.8-3.5c1.3-1.7,3.2-3.4,5-3.6L899.9,13.6z"/>
	<path class="st0" d="M942.1,16.5c10.1-2.6,15.4,10.4,12.1,18.5c-6.8,14.9-26.7,15.8-23-4.4c1.2-5.7,4.4-12.8,10.8-14L942.1,16.5z
		 M947.8,23.9c-0.5,0-0.5,0-1,0.1c-0.9,0.2-1.6-0.2-2.3-0.8c-3.6-3.3-6.2,2-7.3,5c-2.8,7.1-1.6,17.1,7.9,10.3
		c3.4-2.6,5.6-7.1,4.6-11.3c-0.3-1.1-0.5-2.9-1.7-3.3L947.8,23.9z"/>
	<path class="st0" d="M981.8,0.6c1.3-1.7,3.5-0.5,3.6,1.5c0.1,1.1-0.1,2.6-0.1,3.7c-0.3,4.9-0.4,9.8-0.7,14.7
		c-0.4,4.5-0.3,8.8-0.3,13.2c0,1.9,0,3.4-0.2,5.3c-0.1,0.9-0.3,1.7-0.9,2.3c-1,0.9-2.7,0.6-4.3,0.9c-5.9,1.3-14.4,3.2-18.3-2.8
		c-3.2-5.6,0.5-15.5,5.3-19.3c2.6-2.2,6.2-2.7,9.6-3c2-0.1,3.5,0.9,4.1-0.8C980.2,11.4,979.9,5.3,981.8,0.6L981.8,0.6z M976.8,22.4
		c-0.8-0.4-2.3-0.2-3.4,0c-1.7,0.3-3.4,0.8-4.7,1.8c-2.9,2.6-5.2,8.1-3.9,12.1c1.3,3.8,10.2,1.9,12.8,0.6c1.1-0.8,0.9-1.8,1-3.2
		c0-0.9,0.1-1.8,0.1-2.7c0-3,0.4-6.3-1.8-8.5L976.8,22.4z"/>
	<path class="st0" d="M995.9,31.5c-1.6,0-1.5,2.2-1.2,3.5c0.6,2.2,2.4,4.2,4.7,4.6c2.8,0.6,6.6-0.7,9.5-0.4c1.4,0.3,2.2,1.7,1.5,3
		c-1,1.5-2.8,1.9-4.9,2.3c-12.8,2.5-19.2-6.9-14.5-18.6c3.1-9,14.9-16.4,22.8-8.1c3,3.1,2.6,8.9-0.6,11.8c-2.3,2-4.8,1.7-8.2,2.2
		c-3,0.3-6.4,0.5-9.1-0.3L995.9,31.5z M1007.8,19.4c-3.8-1.1-7.8,1.7-10,4.5c-0.6,0.8-1,1.3-1.4,2.3c-0.1,0.3-0.3,0.8,0,0.9
		c2.4,0.1,4.8-0.4,7.2-0.6c2-0.2,3.3-0.2,5.1-0.5c1.6-0.3,2.1-2.2,1.9-3.7c-0.2-1.4-1.6-2.3-2.7-2.9L1007.8,19.4z"/>
	<path class="st0" d="M1023.1,2.1c0.8-0.5,1.8-0.5,2.5-0.1c1.4,0.6,1.3,2.3,1.3,3.7c-0.2,4.6-0.5,9.6-0.9,14.1
		c-0.6,6.6-0.3,12.8,0.4,19.2c0.1,1.9,1.4,3.5,1.5,5.4c-0.1,2.8-3.8,2.9-5.1,1c-1.6-2.2-1.6-5.4-2.1-8.1c-0.3-3.7-0.7-7.1-0.6-10.8
		c0.5-6.5,1.2-13.2,1.3-19.6c0.2-1.6,0.2-3.6,1.6-4.7L1023.1,2.1z"/>
	<path class="st0" d="M1042.9,13.8c1.8-0.1,4.6,0.3,5.1,2.3c0.2,0.9-0.3,1.9-1.1,2.5c-1.5,1-3.7,0.2-5.5,1.2c-1.4,0.8-3.1,2-3.2,3.7
		c0,0.7,1.5,0.8,2,0.7c3-0.3,6-2.7,9-2.4c4.2,0.3,5.7,4.6,5.9,8.4c1.5,8.3-10,16.8-17.5,13.3c-2.7-1.4-6.2-6.7-3.7-9.4
		c2.1-1.5,3.5,0.7,4.3,2.4c3.5,5.8,12.9-0.9,11.5-6.4c-0.2-2.1-1-3.3-3.3-2.3c-3.3,1.5-7.6,2.6-11.1,1.2c-2.1-0.9-3.1-3.4-2.9-5.6
		c0.3-4.9,5.5-8.8,10.3-9.5L1042.9,13.8z"/>
</g>
</svg>
